<?xml version="1.0" encoding="UTF-8" standalone="no"?>
<svg
   xmlns:dc="http://purl.org/dc/elements/1.1/"
   xmlns:cc="http://creativecommons.org/ns#"
   xmlns:rdf="http://www.w3.org/1999/02/22-rdf-syntax-ns#"
   xmlns:svg="http://www.w3.org/2000/svg"
   xmlns="http://www.w3.org/2000/svg"
   xmlns:sodipodi="http://sodipodi.sourceforge.net/DTD/sodipodi-0.dtd"
   xmlns:inkscape="http://www.inkscape.org/namespaces/inkscape"
   sodipodi:docname="Filingua_Full.svg"
   inkscape:version="1.0 (4035a4fb49, 2020-05-01)"
   id="svg8"
   version="1.1"
   viewBox="0 0 99.880295 27.093304"
   height="27.093304mm"
   width="99.880295mm">
  <defs
     id="defs2">
    <rect
       id="rect1412"
       height="28.726191"
       width="110.74702"
       y="0"
       x="35.907738" />
  </defs>
  <sodipodi:namedview
     inkscape:window-maximized="1"
     inkscape:window-y="-8"
     inkscape:window-x="1358"
     inkscape:window-height="1017"
     inkscape:window-width="1920"
     inkscape:snap-page="true"
     showgrid="false"
     inkscape:document-rotation="0"
     inkscape:current-layer="layer1"
     inkscape:document-units="mm"
     inkscape:cy="53.962737"
     inkscape:cx="127.58058"
     inkscape:zoom="1.4"
     inkscape:pageshadow="2"
     inkscape:pageopacity="0.0"
     borderopacity="1.0"
     bordercolor="#666666"
     pagecolor="#ffffff"
     id="base" />
  <metadata
     id="metadata5">
    <rdf:RDF>
      <cc:Work
         rdf:about="">
        <dc:format>image/svg+xml</dc:format>
        <dc:type
           rdf:resource="http://purl.org/dc/dcmitype/StillImage" />
        <dc:title></dc:title>
      </cc:Work>
    </rdf:RDF>
  </metadata>
  <g
     transform="translate(-0.05344417)"
     id="layer1"
     inkscape:groupmode="layer"
     inkscape:label="レイヤー 1">
    <g
       id="g1444">
      <g
         id="g6"
         style="display:inline"
         transform="matrix(0.07937476,0,0,0.07937476,0.05344417,-3.3866048)">
	<path
   id="path2"
   d="m 42.666016,42.666016 c -23.573,0 -42.45312538,19.092015 -42.45312538,42.666015 L 0.17382812,133.45312 C 17.179126,132.27818 42.392479,130.77557 60.257812,130.79297 c 1.950864,0.002 3.813586,0.0219 5.566407,0.0625 33.976537,0.78741 68.836151,0.17046 101.511721,9.51562 12.57366,3.59605 24.82719,8.42851 36.67187,14.17579 1.08883,-3.34562 2.71034,-5.37175 5.71289,-7.65626 3.74339,-2.84815 9.61427,-3.40171 14.00586,-1.71679 4.80285,1.84271 8.14229,6.89908 10.13282,11.64258 2.36072,5.62578 2.82448,10.31207 2.74218,16.35547 3.39369,2.22991 6.74525,4.51364 10.04102,6.85351 21.34088,15.15121 39.81914,34.39449 56.30664,54.7207 11.22702,13.84095 19.69385,29.73987 28.55078,45.20508 6.65437,11.61931 18.4375,35.6875 18.4375,35.6875 l -14.47266,7.13672 c 0,0 -35.984,-23.18857 -55.51367,-31.72266 -22.60075,-9.87609 -46.50248,-16.86596 -70.58203,-22.20507 -14.70248,-3.25995 -29.72965,-5.86204 -44.78906,-5.92774 -12.8337,-0.056 -22.02554,1.23918 -38.21094,4.71875 0,0 -2.59173,16.94619 -1.89844,25.41211 0.89306,10.90546 3.20961,21.93958 7.73828,31.90039 5.9304,13.04391 24.81641,35.09961 24.81641,35.09961 l 30.57813,5.2793 c 6.77827,2.84826 17.12803,15.66513 19.49804,18.66992 H 384 c 23.573,0 42.66797,-19.09397 42.66797,-42.66797 V 128 C 426.66797,104.427 407.573,85.332031 384,85.332031 H 213.33203 L 170.66602,42.666016 Z M 25.378906,325.94727 0.00585938,334.4043 0,341.33203 C 0,364.90603 19.093969,384 42.667969,384 H 71.648438 C 65.024965,379.42324 55.298562,372.30657 50.359375,366.79102 39.712978,354.90226 25.378906,325.94727 25.378906,325.94727 Z"
   style="fill:#dc4700;fill-opacity:1" />

</g>
      <g
         aria-label="Filingua"
         id="text1410"
         style="font-style:normal;font-weight:normal;font-size:10.5833px;line-height:1.25;font-family:sans-serif;white-space:pre;shape-inside:url(#rect1412);fill:#000000;fill-opacity:1;stroke:none"
         transform="translate(0.1889881,-1.889881)">
        <path
           d="m 37.483003,22.986596 q -0.4572,0 -0.4572,-0.4572 V 9.9817964 q 0,-2.1336 1.2446,-3.4544 1.27,-1.3208 3.3274,-1.3208 h 2.2606 q 0.4318,0 0.4318,0.4318 v 2.0574 q 0,0.4318 -0.4318,0.4318 h -1.8796 q -0.8128,0 -1.2954,0.5334 -0.4572,0.508 -0.4572,1.3969996 v 2.5654 h 3.1496 q 0.4318,0 0.4318,0.4318 v 2.032 q 0,0.4572 -0.4318,0.4572 h -3.1496 v 6.985 q 0,0.4572 -0.4318,0.4572 z"
           style="font-style:normal;font-variant:normal;font-weight:800;font-stretch:normal;font-size:25.4px;font-family:Phenomena;-inkscape-font-specification:'Phenomena Ultra-Bold'"
           id="path1416" />
        <path
           d="m 45.767768,22.986596 q -0.4572,0 -0.4572,-0.4572 v -11.811 q 0,-0.4318 0.4572,-0.4318 h 2.0828 q 0.4572,0 0.4572,0.4318 v 11.811 q 0,0.4572 -0.4572,0.4572 z m 1.0414,-14.2239996 q -0.7366,0 -1.2192,-0.4826 -0.4572,-0.4826 -0.4572,-1.1938 0,-0.7366 0.4572,-1.1938 0.4826,-0.4826 1.2192,-0.4826 0.7112,0 1.1938,0.4826 0.4826,0.4826 0.4826,1.1938 0,0.6858 -0.508,1.1938 -0.4826,0.4826 -1.1684,0.4826 z"
           style="font-style:normal;font-variant:normal;font-weight:800;font-stretch:normal;font-size:25.4px;font-family:Phenomena;-inkscape-font-specification:'Phenomena Ultra-Bold'"
           id="path1418" />
        <path
           d="m 51.075971,22.986596 q -0.4572,0 -0.4572,-0.4572 V 5.6383964 q 0,-0.4318 0.4572,-0.4318 h 2.0828 q 0.4572,0 0.4572,0.4318 V 22.529396 q 0,0.4572 -0.4572,0.4572 z"
           style="font-style:normal;font-variant:normal;font-weight:800;font-stretch:normal;font-size:25.4px;font-family:Phenomena;-inkscape-font-specification:'Phenomena Ultra-Bold'"
           id="path1420" />
        <path
           d="m 56.384176,22.986596 q -0.4572,0 -0.4572,-0.4572 v -11.811 q 0,-0.4318 0.4572,-0.4318 h 2.0828 q 0.4572,0 0.4572,0.4318 v 11.811 q 0,0.4572 -0.4572,0.4572 z m 1.0414,-14.2239996 q -0.7366,0 -1.2192,-0.4826 -0.4572,-0.4826 -0.4572,-1.1938 0,-0.7366 0.4572,-1.1938 0.4826,-0.4826 1.2192,-0.4826 0.7112,0 1.1938,0.4826 0.4826,0.4826 0.4826,1.1938 0,0.6858 -0.508,1.1938 -0.4826,0.4826 -1.1684,0.4826 z"
           style="font-style:normal;font-variant:normal;font-weight:800;font-stretch:normal;font-size:25.4px;font-family:Phenomena;-inkscape-font-specification:'Phenomena Ultra-Bold'"
           id="path1422" />
        <path
           d="m 61.34154,22.986596 q -0.4318,0 -0.4318,-0.4572 v -8.255 q 0,-1.905 1.143,-3.0988 1.143,-1.1937996 2.9972,-1.1937996 1.8542,0 2.9972,1.1937996 1.143,1.1938 1.143,3.0988 v 8.255 q 0,0.4572 -0.4318,0.4572 h -2.1082 q -0.4572,0 -0.4572,-0.4572 v -8.4074 q 0,-0.5842 -0.3048,-0.9398 -0.3048,-0.381 -0.8382,-0.381 -0.5334,0 -0.8636,0.3556 -0.3048,0.3556 -0.3048,0.9652 v 8.4074 q 0,0.4572 -0.4318,0.4572 z"
           style="font-style:normal;font-variant:normal;font-weight:800;font-stretch:normal;font-size:25.4px;font-family:Phenomena;-inkscape-font-specification:'Phenomena Ultra-Bold'"
           id="path1424" />
        <path
           d="m 75.268282,9.9817964 q 1.8796,0 3.048,1.1937996 1.1684,1.1938 1.1684,3.0988 v 9.8044 q 0,2.0066 -1.143,3.1496 -1.1176,1.143 -3.0734,1.143 -1.8542,0 -2.9718,-1.143 -1.1176,-1.1176 -1.2446,-3.0734 v -0.0508 q 0,-0.4064 0.4318,-0.4064 h 2.1336 q 0.381,0 0.4572,0.4572 0.0508,0.6604 0.3556,1.016 0.3302,0.3556 0.8382,0.3556 0.5842,0 0.889,-0.3556 0.3302,-0.3302 0.3302,-0.9398 v -2.2098 q -0.6858,0.5334 -1.6002,0.5334 -1.0922,0 -1.9812,-0.5334 -0.8636,-0.5588 -1.3716,-1.524 -0.508,-0.9652 -0.508,-2.2352 v -3.9878 q 0,-1.905 1.1684,-3.0988 1.1684,-1.1937996 3.0734,-1.1937996 z m 0,9.7535996 q 0.5588,0 0.889,-0.3556 0.3302,-0.3556 0.3302,-0.9398 v -4.318 q 0,-0.5842 -0.3302,-0.9398 -0.3302,-0.3556 -0.889,-0.3556 -0.5588,0 -0.889,0.3556 -0.3302,0.3556 -0.3302,0.9398 v 4.318 q 0,0.5842 0.3302,0.9398 0.3302,0.3556 0.889,0.3556 z"
           style="font-style:normal;font-variant:normal;font-weight:800;font-stretch:normal;font-size:25.4px;font-family:Phenomena;-inkscape-font-specification:'Phenomena Ultra-Bold'"
           id="path1426" />
        <path
           d="m 83.93841,10.286596 q 0.4318,0 0.4318,0.4318 v 8.4328 q 0,0.5842 0.3048,0.9398 0.3048,0.3556 0.8636,0.3556 0.5334,0 0.8382,-0.3556 0.3048,-0.3556 0.3048,-0.9398 v -8.4328 q 0,-0.4318 0.4572,-0.4318 h 2.1082 q 0.4318,0 0.4318,0.4318 v 8.255 q 0,1.9304 -1.143,3.1242 -1.143,1.1938 -2.9972,1.1938 -1.8542,0 -2.9972,-1.1938 -1.143,-1.1938 -1.143,-3.1242 v -8.255 q 0,-0.4318 0.4318,-0.4318 z"
           style="font-style:normal;font-variant:normal;font-weight:800;font-stretch:normal;font-size:25.4px;font-family:Phenomena;-inkscape-font-specification:'Phenomena Ultra-Bold'"
           id="path1428" />
        <path
           d="m 95.680752,23.265996 q -1.9558,0 -3.1496,-1.1684 -1.1938,-1.1684 -1.1938,-3.0734 0,-1.6764 1.143,-2.7432 1.1684,-1.0922 2.9972,-1.0922 h 1.27 v -1.0922 q 0,-0.5842 -0.3048,-0.9144 -0.3048,-0.3556 -0.8382,-0.3556 -0.5334,0 -0.8128,0.3048 -0.2794,0.3048 -0.3048,0.8128 -0.0254,0.3302 -0.4572,0.3302 h -2.0828 q -0.4318,0 -0.4318,-0.4572 0.1524,-1.7272 1.27,-2.7686 1.1176,-1.0667996 2.8448,-1.0667996 1.8542,0 2.9718,1.1937996 1.143,1.1938 1.143,3.0988 v 4.8768 q 0,1.8796 -1.0922,2.9972 -1.0668,1.1176 -2.9718,1.1176 z m -0.0508,-2.8448 q 0.5334,0 0.8128,-0.3302 0.3048,-0.3302 0.3048,-0.9144 v -1.3716 h -1.0922 q -0.6096,0 -0.9652,0.3302 -0.3302,0.3302 -0.3302,0.889 0,0.6604 0.3302,1.0414 0.3302,0.3556 0.9398,0.3556 z"
           style="font-style:normal;font-variant:normal;font-weight:800;font-stretch:normal;font-size:25.4px;font-family:Phenomena;-inkscape-font-specification:'Phenomena Ultra-Bold'"
           id="path1430" />
      </g>
    </g>
  </g>
</svg>
