<?xml version="1.0" encoding="UTF-8" standalone="no"?>
<svg
   xmlns:dc="http://purl.org/dc/elements/1.1/"
   xmlns:cc="http://creativecommons.org/ns#"
   xmlns:rdf="http://www.w3.org/1999/02/22-rdf-syntax-ns#"
   xmlns:svg="http://www.w3.org/2000/svg"
   xmlns="http://www.w3.org/2000/svg"
   xmlns:sodipodi="http://sodipodi.sourceforge.net/DTD/sodipodi-0.dtd"
   xmlns:inkscape="http://www.inkscape.org/namespaces/inkscape"
   inkscape:version="1.0 (4035a4fb49, 2020-05-01)"
   sodipodi:docname="Filingua.svg"
   xml:space="preserve"
   style="enable-background:new 0 0 426.667 426.667;"
   viewBox="0 0 426.667 426.667"
   y="0px"
   x="0px"
   id="Capa_1"
   version="1.1"><metadata
   id="metadata43"><rdf:RDF><cc:Work
       rdf:about=""><dc:format>image/svg+xml</dc:format><dc:type
         rdf:resource="http://purl.org/dc/dcmitype/StillImage" /><dc:title></dc:title></cc:Work></rdf:RDF></metadata><defs
   id="defs41" /><sodipodi:namedview
   inkscape:current-layer="g6"
   inkscape:window-maximized="1"
   inkscape:window-y="-8"
   inkscape:window-x="1358"
   inkscape:cy="208.47636"
   inkscape:cx="210.76607"
   inkscape:zoom="1.7832336"
   showgrid="false"
   id="namedview39"
   inkscape:window-height="1017"
   inkscape:window-width="1920"
   inkscape:pageshadow="2"
   inkscape:pageopacity="0"
   guidetolerance="10"
   gridtolerance="10"
   objecttolerance="10"
   borderopacity="1"
   bordercolor="#666666"
   pagecolor="#ffffff" />
<g
   style="display:inline"
   id="g6">
	<path
   style="fill:#dc4700;fill-opacity:1"
   d="m 42.666016,42.666016 c -23.573,0 -42.45312538,19.092015 -42.45312538,42.666015 L 0.17382812,133.45312 C 17.179126,132.27818 42.392479,130.77557 60.257812,130.79297 c 1.950864,0.002 3.813586,0.0219 5.566407,0.0625 33.976537,0.78741 68.836151,0.17046 101.511721,9.51562 12.57366,3.59605 24.82719,8.42851 36.67187,14.17579 1.08883,-3.34562 2.71034,-5.37175 5.71289,-7.65626 3.74339,-2.84815 9.61427,-3.40171 14.00586,-1.71679 4.80285,1.84271 8.14229,6.89908 10.13282,11.64258 2.36072,5.62578 2.82448,10.31207 2.74218,16.35547 3.39369,2.22991 6.74525,4.51364 10.04102,6.85351 21.34088,15.15121 39.81914,34.39449 56.30664,54.7207 11.22702,13.84095 19.69385,29.73987 28.55078,45.20508 6.65437,11.61931 18.4375,35.6875 18.4375,35.6875 l -14.47266,7.13672 c 0,0 -35.984,-23.18857 -55.51367,-31.72266 -22.60075,-9.87609 -46.50248,-16.86596 -70.58203,-22.20507 -14.70248,-3.25995 -29.72965,-5.86204 -44.78906,-5.92774 -12.8337,-0.056 -22.02554,1.23918 -38.21094,4.71875 0,0 -2.59173,16.94619 -1.89844,25.41211 0.89306,10.90546 3.20961,21.93958 7.73828,31.90039 5.9304,13.04391 24.81641,35.09961 24.81641,35.09961 l 30.57813,5.2793 c 6.77827,2.84826 17.12803,15.66513 19.49804,18.66992 H 384 c 23.573,0 42.66797,-19.09397 42.66797,-42.66797 V 128 C 426.66797,104.427 407.573,85.332031 384,85.332031 H 213.33203 L 170.66602,42.666016 Z M 25.378906,325.94727 0.00585938,334.4043 0,341.33203 C 0,364.90603 19.093969,384 42.667969,384 H 71.648438 C 65.024965,379.42324 55.298562,372.30657 50.359375,366.79102 39.712978,354.90226 25.378906,325.94727 25.378906,325.94727 Z"
   id="path2" />
</g>















</svg>
